# xmcd
#
# Track frame offsets:
# 150
# 9720
# 22822
# 38972
# 47689
# 58167
# 69985
# 81750
# 94280
# 104565
#
# Disc length: 1548 seconds
#
#
# Revision: 0
# Processed by: cddbd v1.5.2PL0 Copyright (c) Steve Scherf et al.
# Submitted via: FreeRIP 2.944 
#
DISCID=7e060a0a
DTITLE=Various Artist - Best Of The Best Of Bluegrass
DYEAR=1995
DGENRE=Bluegrass
TTITLE0=01. How Mountain Girls Can Love (Stanley Brothers)
TTITLE1=02. Freeborn Man (Jimmy Martin)
TTITLE2=03. Long Black Veil (Country Gentlemen)
TTITLE3=04. Hills Of Home (Ralph Stanley)
TTITLE4=05. Dark Hollow (Larry Sparks and The Lonesome Ramblers)
TTITLE5=06. I Know You're Married But I Love You Still (Reno and Smiley)
TTITLE6=07. I Still Write Your Name In The Sand (Mac Wiseman)
TTITLE7=08. Rabbit In The Log (Jimmy Martin and Ralph Stanley)
TTITLE8=09. Willow Garden (Charlie Monroe)
TTITLE9=10. Devil In Disguise (J.D. Crowe and New South)
EXTD=King Record, Inc. Nashville, TN
EXTT0=
EXTT1=
EXTT2=
EXTT3=
EXTT4=
EXTT5=
EXTT6=
EXTT7=
EXTT8=
EXTT9=
PLAYORDER=
